<?xml version="1.0" encoding="UTF-8" standalone="no"?>
<svg width="94.1917mm" height="58.2083mm"
 viewBox="0 0 2225 1375"
 xmlns="http://www.w3.org/2000/svg" xmlns:xlink="http://www.w3.org/1999/xlink"  version="1.2" baseProfile="tiny">
<title>bentel_netatmo_connect - v1</title>
<desc>Generated with Qt</desc>
<defs>
</defs>
<g fill="none" stroke="black" stroke-width="1" fill-rule="evenodd" stroke-linecap="square" stroke-linejoin="bevel" >

<g fill="#800000" fill-opacity="1" stroke="none" transform="matrix(8.34552,0,0,8.34552,2.54593,537.281)"
font-family=".AppleSystemUIFont" font-size="108.333" font-weight="400" font-style="normal" 
>
<path vector-effect="none" fill-rule="evenodd" d="M153.431,32.9726 L155.951,32.9726 L155.951,32.6126 L153.431,32.6126 L153.431,32.9726"/>
</g>

<g fill="#800000" fill-opacity="1" stroke="none" transform="matrix(8.34552,0,0,8.34552,2.54593,537.281)"
font-family=".AppleSystemUIFont" font-size="108.333" font-weight="400" font-style="normal" 
>
<path vector-effect="none" fill-rule="evenodd" d="M154.511,34.0526 L154.871,34.0526 L154.871,31.5326 L154.511,31.5326 L154.511,34.0526"/>
</g>

<g fill="none" stroke="#800000" stroke-opacity="1" stroke-width="0.72" stroke-linecap="round" stroke-linejoin="round" transform="matrix(8.34552,0,0,8.34552,2.54593,537.281)"
font-family=".AppleSystemUIFont" font-size="108.333" font-weight="400" font-style="normal" 
>
<path vector-effect="none" fill-rule="evenodd" d="M153.014,34.8661 L163.786,34.8661"/>
<path vector-effect="none" fill-rule="evenodd" d="M153.014,39.1181 L153.014,39.118 C154.47,37.8946 156.349,37.1578 158.4,37.1578 C160.451,37.1578 162.33,37.8946 163.786,39.118 "/>
</g>

<g fill="none" stroke="#800000" stroke-opacity="1" stroke-width="0.45" stroke-linecap="round" stroke-linejoin="round" transform="matrix(8.34552,0,0,8.34552,2.54593,537.281)"
font-family=".AppleSystemUIFont" font-size="108.333" font-weight="400" font-style="normal" 
>
<polyline fill="none" vector-effect="none" points="158.4,28.8 158.4,34.8661 " />
<polyline fill="none" vector-effect="none" points="158.4,43.2 158.4,37.1339 " />
</g>

<g fill="none" stroke="#800000" stroke-opacity="1" stroke-width="0.576" stroke-linecap="round" stroke-linejoin="round" transform="matrix(8.34552,0,0,8.34552,2.54593,537.281)"
font-family=".AppleSystemUIFont" font-size="108.333" font-weight="400" font-style="normal" 
>
<path vector-effect="none" fill-rule="evenodd" d="M106.469,28.8 L107.929,25.92 L110.849,31.68 L113.769,25.92 L116.631,31.68 L119.551,25.92 L122.471,31.68 L123.931,28.8"/>
</g>

<g fill="none" stroke="#800000" stroke-opacity="1" stroke-width="0.45" stroke-linecap="round" stroke-linejoin="round" transform="matrix(8.34552,0,0,8.34552,2.54593,537.281)"
font-family=".AppleSystemUIFont" font-size="108.333" font-weight="400" font-style="normal" 
>
<polyline fill="none" vector-effect="none" points="100.8,28.8 106.469,28.8 " />
<polyline fill="none" vector-effect="none" points="129.6,28.8 123.931,28.8 " />
</g>

<g fill="none" stroke="#000000" stroke-opacity="1" stroke-width="0.283465" stroke-linecap="round" stroke-linejoin="round" transform="matrix(8.34552,0,0,8.34552,2.54593,537.281)"
font-family=".AppleSystemUIFont" font-size="108.333" font-weight="400" font-style="normal" 
>
<path vector-effect="none" fill-rule="evenodd" d="M28.8,-36 L237.6,-36 L237.6,72 L28.8,72 L28.8,-36"/>
</g>

<g fill="none" stroke="#202020" stroke-opacity="1" stroke-width="1" stroke-linecap="square" stroke-linejoin="bevel" transform="matrix(5.51738,0,0,5.51738,1384.56,837.719)"
font-family="Noto Sans" font-size="8" font-weight="400" font-style="normal" 
>
</g>

<g fill="none" stroke="#202020" stroke-opacity="1" stroke-width="1" stroke-linecap="square" stroke-linejoin="bevel" transform="matrix(5.51738,0,0,5.51738,1384.56,837.719)"
font-family="Noto Sans" font-size="8" font-weight="400" font-style="normal" 
>
<text fill="#202020" fill-opacity="1" stroke="none" xml:space="preserve" x="0" y="-2.34375" font-family="Noto Sans" font-size="8" font-weight="400" font-style="normal" 
 >C1</text>
</g>

<g fill="none" stroke="#000000" stroke-opacity="0" stroke-width="1" stroke-linecap="square" stroke-linejoin="bevel" transform="matrix(5.51738,0,0,5.51738,1384.56,837.719)"
font-family="Noto Sans" font-size="8" font-weight="400" font-style="normal" 
>
<rect x="0" y="-10.8906" width="9.60938" height="10.8906"/>
</g>

<g fill="none" stroke="#000000" stroke-opacity="1" stroke-width="0.283465" stroke-linecap="round" stroke-linejoin="round" transform="matrix(8.34552,0,0,8.34552,2.54593,537.281)"
font-family=".AppleSystemUIFont" font-size="108.333" font-weight="400" font-style="normal" 
>
</g>

<g fill="none" stroke="#202020" stroke-opacity="1" stroke-width="1" stroke-linecap="square" stroke-linejoin="bevel" transform="matrix(5.51738,0,0,5.51738,891.087,753.597)"
font-family="Noto Sans" font-size="8" font-weight="400" font-style="normal" 
>
</g>

<g fill="none" stroke="#202020" stroke-opacity="1" stroke-width="1" stroke-linecap="square" stroke-linejoin="bevel" transform="matrix(5.51738,0,0,5.51738,891.087,753.597)"
font-family="Noto Sans" font-size="8" font-weight="400" font-style="normal" 
>
<text fill="#202020" fill-opacity="1" stroke="none" xml:space="preserve" x="0" y="-2.34375" font-family="Noto Sans" font-size="8" font-weight="400" font-style="normal" 
 >R1</text>
</g>

<g fill="none" stroke="#000000" stroke-opacity="0" stroke-width="1" stroke-linecap="square" stroke-linejoin="bevel" transform="matrix(5.51738,0,0,5.51738,891.087,753.597)"
font-family="Noto Sans" font-size="8" font-weight="400" font-style="normal" 
>
<rect x="0" y="-10.8906" width="9.53125" height="10.8906"/>
</g>

<g fill="none" stroke="#000000" stroke-opacity="1" stroke-width="0.283465" stroke-linecap="round" stroke-linejoin="round" transform="matrix(8.34552,0,0,8.34552,2.54593,537.281)"
font-family=".AppleSystemUIFont" font-size="108.333" font-weight="400" font-style="normal" 
>
</g>

<g fill="none" stroke="#000080" stroke-opacity="1" stroke-width="1" stroke-linecap="square" stroke-linejoin="bevel" transform="matrix(5.22076,0,0,5.22076,302.985,357.017)"
font-family="Noto Sans" font-size="5" font-weight="400" font-style="normal" 
>
</g>

<g fill="none" stroke="#000080" stroke-opacity="1" stroke-width="1" stroke-linecap="square" stroke-linejoin="bevel" transform="matrix(5.22076,0,0,5.22076,302.985,357.017)"
font-family="Noto Sans" font-size="5" font-weight="400" font-style="normal" 
>
<text fill="#000080" fill-opacity="1" stroke="none" xml:space="preserve" x="0" y="-1.45313" font-family="Noto Sans" font-size="5" font-weight="400" font-style="normal" 
 >bentel_netatmo_connect</text>
</g>

<g fill="none" stroke="#000000" stroke-opacity="0" stroke-width="1" stroke-linecap="square" stroke-linejoin="bevel" transform="matrix(5.22076,0,0,5.22076,302.985,357.017)"
font-family="Noto Sans" font-size="5" font-weight="400" font-style="normal" 
>
<rect x="0" y="-6.79688" width="57.8125" height="6.79688"/>
</g>

<g fill="none" stroke="#000000" stroke-opacity="1" stroke-width="0.283465" stroke-linecap="round" stroke-linejoin="round" transform="matrix(8.34552,0,0,8.34552,2.54593,537.281)"
font-family=".AppleSystemUIFont" font-size="108.333" font-weight="400" font-style="normal" 
>
</g>

<g fill="none" stroke="#008000" stroke-opacity="1" stroke-width="0.45" stroke-linecap="round" stroke-linejoin="round" transform="matrix(8.34552,0,0,8.34552,2.54593,537.281)"
font-family=".AppleSystemUIFont" font-size="108.333" font-weight="400" font-style="normal" 
>
<polyline fill="none" vector-effect="none" points="158.4,28.8 129.6,28.8 " />
<polyline fill="none" vector-effect="none" points="158.4,28.8 201.6,28.8 " />
</g>

<g fill="#008000" fill-opacity="1" stroke="none" transform="matrix(8.34552,0,0,8.34552,2.54593,537.281)"
font-family=".AppleSystemUIFont" font-size="108.333" font-weight="400" font-style="normal" 
>
<circle cx="158.4" cy="28.8" r="0.225"/>
</g>

<g fill="none" stroke="#008000" stroke-opacity="1" stroke-width="0.45" stroke-linecap="round" stroke-linejoin="round" transform="matrix(8.34552,0,0,8.34552,2.54593,537.281)"
font-family=".AppleSystemUIFont" font-size="108.333" font-weight="400" font-style="normal" 
>
<polyline fill="none" vector-effect="none" points="158.4,43.2 201.6,43.2 " />
<polyline fill="none" vector-effect="none" points="187.2,7.2 201.6,7.2 " />
<polyline fill="none" vector-effect="none" points="57.6,7.2 180,7.2 " />
<polyline fill="none" vector-effect="none" points="180,7.2 187.2,7.2 " />
<polyline fill="none" vector-effect="none" points="100.8,28.8 57.6,28.8 " />
</g>

<g fill="#008000" fill-opacity="1" stroke="none" transform="matrix(8.34552,0,0,8.34552,2.54593,537.281)"
font-family=".AppleSystemUIFont" font-size="108.333" font-weight="400" font-style="normal" 
>
<circle cx="158.4" cy="28.8" r="1.70079"/>
</g>

<g fill="none" stroke="#008000" stroke-opacity="1" stroke-width="1" stroke-linecap="square" stroke-linejoin="bevel" transform="matrix(8.34552,0,0,8.34552,1745.09,777.632)"
font-family="Noto Sans Mono" font-size="4" font-weight="400" font-style="normal" 
>
</g>

<g fill="none" stroke="#008000" stroke-opacity="1" stroke-width="1" stroke-linecap="square" stroke-linejoin="bevel" transform="matrix(8.34552,0,0,8.34552,1745.09,777.632)"
font-family="Noto Sans Mono" font-size="4" font-weight="400" font-style="normal" 
>
<text fill="#008000" fill-opacity="1" stroke="none" xml:space="preserve" x="0" y="-1.17188" font-family="Noto Sans Mono" font-size="4" font-weight="400" font-style="normal" 
 >3.3V</text>
</g>

<g fill="none" stroke="#000000" stroke-opacity="0" stroke-width="1" stroke-linecap="square" stroke-linejoin="bevel" transform="matrix(8.34552,0,0,8.34552,1745.09,777.632)"
font-family="Noto Sans Mono" font-size="4" font-weight="400" font-style="normal" 
>
<rect x="0" y="-5.4375" width="9.5625" height="5.4375"/>
</g>

<g fill="#008000" fill-opacity="1" stroke="none" transform="matrix(8.34552,0,0,8.34552,2.54593,537.281)"
font-family=".AppleSystemUIFont" font-size="108.333" font-weight="400" font-style="normal" 
>
</g>

<g fill="none" stroke="#008000" stroke-opacity="1" stroke-width="1" stroke-linecap="square" stroke-linejoin="bevel" transform="matrix(8.34552,0,0,8.34552,1745.09,897.807)"
font-family="Noto Sans Mono" font-size="4" font-weight="400" font-style="normal" 
>
</g>

<g fill="none" stroke="#008000" stroke-opacity="1" stroke-width="1" stroke-linecap="square" stroke-linejoin="bevel" transform="matrix(8.34552,0,0,8.34552,1745.09,897.807)"
font-family="Noto Sans Mono" font-size="4" font-weight="400" font-style="normal" 
>
<text fill="#008000" fill-opacity="1" stroke="none" xml:space="preserve" x="0" y="-1.17188" font-family="Noto Sans Mono" font-size="4" font-weight="400" font-style="normal" 
 >GPIO</text>
</g>

<g fill="none" stroke="#000000" stroke-opacity="0" stroke-width="1" stroke-linecap="square" stroke-linejoin="bevel" transform="matrix(8.34552,0,0,8.34552,1745.09,897.807)"
font-family="Noto Sans Mono" font-size="4" font-weight="400" font-style="normal" 
>
<rect x="0" y="-5.4375" width="9.5625" height="5.4375"/>
</g>

<g fill="#008000" fill-opacity="1" stroke="none" transform="matrix(8.34552,0,0,8.34552,2.54593,537.281)"
font-family=".AppleSystemUIFont" font-size="108.333" font-weight="400" font-style="normal" 
>
</g>

<g fill="none" stroke="#008000" stroke-opacity="1" stroke-width="1" stroke-linecap="square" stroke-linejoin="bevel" transform="matrix(8.34552,0,0,8.34552,1745.09,597.368)"
font-family="Noto Sans Mono" font-size="4" font-weight="400" font-style="normal" 
>
</g>

<g fill="none" stroke="#008000" stroke-opacity="1" stroke-width="1" stroke-linecap="square" stroke-linejoin="bevel" transform="matrix(8.34552,0,0,8.34552,1745.09,597.368)"
font-family="Noto Sans Mono" font-size="4" font-weight="400" font-style="normal" 
>
<text fill="#008000" fill-opacity="1" stroke="none" xml:space="preserve" x="0" y="-1.17188" font-family="Noto Sans Mono" font-size="4" font-weight="400" font-style="normal" 
 >0V</text>
</g>

<g fill="none" stroke="#000000" stroke-opacity="0" stroke-width="1" stroke-linecap="square" stroke-linejoin="bevel" transform="matrix(8.34552,0,0,8.34552,1745.09,597.368)"
font-family="Noto Sans Mono" font-size="4" font-weight="400" font-style="normal" 
>
<rect x="0" y="-5.4375" width="4.78125" height="5.4375"/>
</g>

<g fill="#008000" fill-opacity="1" stroke="none" transform="matrix(8.34552,0,0,8.34552,2.54593,537.281)"
font-family=".AppleSystemUIFont" font-size="108.333" font-weight="400" font-style="normal" 
>
</g>

<g fill="none" stroke="#008000" stroke-opacity="1" stroke-width="1" stroke-linecap="square" stroke-linejoin="bevel" transform="matrix(8.34552,0,0,8.34552,423.16,597.368)"
font-family="Noto Sans Mono" font-size="4" font-weight="400" font-style="normal" 
>
</g>

<g fill="none" stroke="#008000" stroke-opacity="1" stroke-width="1" stroke-linecap="square" stroke-linejoin="bevel" transform="matrix(8.34552,0,0,8.34552,423.16,597.368)"
font-family="Noto Sans Mono" font-size="4" font-weight="400" font-style="normal" 
>
<text fill="#008000" fill-opacity="1" stroke="none" xml:space="preserve" x="0" y="-1.17188" font-family="Noto Sans Mono" font-size="4" font-weight="400" font-style="normal" 
 >0V</text>
</g>

<g fill="none" stroke="#000000" stroke-opacity="0" stroke-width="1" stroke-linecap="square" stroke-linejoin="bevel" transform="matrix(8.34552,0,0,8.34552,423.16,597.368)"
font-family="Noto Sans Mono" font-size="4" font-weight="400" font-style="normal" 
>
<rect x="0" y="-5.4375" width="4.78125" height="5.4375"/>
</g>

<g fill="#008000" fill-opacity="1" stroke="none" transform="matrix(8.34552,0,0,8.34552,2.54593,537.281)"
font-family=".AppleSystemUIFont" font-size="108.333" font-weight="400" font-style="normal" 
>
</g>

<g fill="none" stroke="#008000" stroke-opacity="1" stroke-width="1" stroke-linecap="square" stroke-linejoin="bevel" transform="matrix(8.34552,0,0,8.34552,423.16,777.632)"
font-family="Noto Sans Mono" font-size="4" font-weight="400" font-style="normal" 
>
</g>

<g fill="none" stroke="#008000" stroke-opacity="1" stroke-width="1" stroke-linecap="square" stroke-linejoin="bevel" transform="matrix(8.34552,0,0,8.34552,423.16,777.632)"
font-family="Noto Sans Mono" font-size="4" font-weight="400" font-style="normal" 
>
<text fill="#008000" fill-opacity="1" stroke="none" xml:space="preserve" x="0" y="-1.17188" font-family="Noto Sans Mono" font-size="4" font-weight="400" font-style="normal" 
 >OC1</text>
</g>

<g fill="none" stroke="#000000" stroke-opacity="0" stroke-width="1" stroke-linecap="square" stroke-linejoin="bevel" transform="matrix(8.34552,0,0,8.34552,423.16,777.632)"
font-family="Noto Sans Mono" font-size="4" font-weight="400" font-style="normal" 
>
<rect x="0" y="-5.4375" width="7.17188" height="5.4375"/>
</g>

<g fill="#008000" fill-opacity="1" stroke="none" transform="matrix(8.34552,0,0,8.34552,2.54593,537.281)"
font-family=".AppleSystemUIFont" font-size="108.333" font-weight="400" font-style="normal" 
>
</g>

<g fill="none" stroke="#000000" stroke-opacity="1" stroke-width="1" stroke-linecap="square" stroke-linejoin="bevel" transform="matrix(1,0,0,1,0,0)"
font-family=".AppleSystemUIFont" font-size="108.333" font-weight="400" font-style="normal" 
>
</g>
</g>
</svg>
